<svg width="325" height="288" viewBox="0 0 325 288" fill="none" xmlns="http://www.w3.org/2000/svg">
<circle cx="152" cy="172" r="104" fill="#F22539" stroke="black" stroke-width="2"/>
<mask id="mask0_404_86" style="mask-type:alpha" maskUnits="userSpaceOnUse" x="0" y="0" width="325" height="288">
<rect width="325" height="288" fill="#C4C4C4"/>
</mask>
<g mask="url(#mask0_404_86)">
<mask id="mask1_404_86" style="mask-type:alpha" maskUnits="userSpaceOnUse" x="7" y="13" width="329" height="262">
<path fill-rule="evenodd" clip-rule="evenodd" d="M244.631 217.424L289.322 269.119H335.438V13.0752H7.5625V239.374H74.2785C93.1606 261.195 121.057 275 152.178 275C192.756 275 227.852 251.53 244.631 217.424Z" fill="#C4C4C4"/>
</mask>
<g mask="url(#mask1_404_86)">
<path d="M217.706 138.7C217.706 138.7 246.647 143.354 268.39 150.356C290.132 157.351 309.1 169.235 309.1 169.235C309.1 169.235 307.357 208.515 294.054 233.524C278.447 223.046 239.901 202.034 221.368 195.496C226.137 205.163 233.591 224.229 237.567 241.742C228.061 241.588 215.33 243.979 215.33 243.979L197.62 183.776L217.706 138.7Z" fill="#F8CC46"/>
<path d="M263.338 186.634C278.229 203.639 289.506 222.403 294.852 231.967C294.589 232.494 294.325 233.015 294.048 233.531C278.441 223.053 239.895 202.041 221.363 195.504C226.131 205.17 233.586 224.236 237.562 241.749C228.055 241.596 215.324 243.986 215.324 243.986L197.614 183.783L215.429 143.806C221.42 148.137 245.067 165.764 263.338 186.634Z" fill="#ECA539"/>
<path d="M217.706 138.7C217.706 138.7 246.647 143.354 268.39 150.356C290.132 157.351 309.1 169.235 309.1 169.235C309.1 169.235 307.357 208.515 294.054 233.524C278.447 223.046 239.901 202.034 221.368 195.496C226.137 205.163 233.591 224.229 237.567 241.742C228.061 241.588 215.33 243.979 215.33 243.979L197.62 183.776L217.706 138.7Z" stroke="#333333" stroke-width="2" stroke-miterlimit="10" stroke-linecap="round" stroke-linejoin="round"/>
<path d="M210.062 194.813C210.062 194.813 209.61 208.809 211.564 220.185C213.518 231.56 216.532 242.906 224.186 255.033C231.84 267.155 236.31 272.837 236.547 280.423C240.053 277.533 244.326 275.227 245.893 276.654C247.461 278.082 246.776 279.895 246.776 279.895C246.776 279.895 248.545 278.607 249.438 279.627C250.332 280.647 250.701 282.746 249.983 285.038C251.228 284.837 251.789 286.518 250.519 290.374C249.249 294.23 244.81 305.139 233.391 316.668C221.972 328.197 211.324 336.326 204.799 332.784C202.531 331.503 202.7 328.398 202.7 328.398C202.7 328.398 201.419 329.002 197.148 328.246C192.877 327.49 172.489 321.373 159.153 320.895C145.818 320.416 127.635 320.501 108.427 326.872C108.581 329.152 107.544 334.57 98.7799 330.854C90.0161 327.138 78.6778 319.718 68.7573 306.766C58.8367 293.813 56.7157 285.308 58.1289 284.449C58.8308 283.941 60.0321 284.499 60.0321 284.499C60.0321 284.499 57.7669 278.899 59.2978 277.952C60.8287 277.006 62.9084 279.251 62.9084 279.251C62.9084 279.251 62.6 277.379 63.7385 276.872C64.8769 276.364 66.652 276.775 69.801 278.957C69.7098 275.282 69.7888 270.594 74.7558 264.115C79.7228 257.636 83.5902 255.763 87.726 254.922C89.4358 248.834 90.4287 245.557 90.9545 241.916C90.9545 241.916 81.6837 237.059 70.1409 222.132C58.5982 207.206 51.4307 194.135 48.607 186.569C45.7896 179.002 44.07 174.236 43.2481 173.424C42.4255 172.606 41.3845 171.126 41.528 170.477C41.6716 169.829 43.5638 170.273 43.7074 169.624C43.851 168.976 42.4363 166.423 42.8824 165.636C43.3284 164.849 45.6353 165.201 45.8155 164.916C45.9956 164.632 45.1731 162.178 45.6355 161.555C46.0973 160.925 48.5659 161.311 49.0384 160.788C49.511 160.264 48.1921 157.594 48.9119 156.888C49.6318 156.181 55.0549 157.697 55.5602 157.437C56.0593 157.177 56.33 154.081 57.158 153.947C57.9861 153.813 74.6122 161.278 83.6293 166.002C92.6463 170.726 210.062 194.813 210.062 194.813Z" fill="#F8CC46" stroke="#333333" stroke-width="1.2" stroke-miterlimit="10" stroke-linecap="round" stroke-linejoin="round"/>
<path d="M71.2319 293.246C76.6835 289.635 89.812 300.888 94.8956 304.816C99.9792 308.743 99.1589 306.816 116.096 301.206C133.039 295.59 156.347 300.854 171.718 306.918C187.09 312.981 205.957 317.057 205.957 317.057C205.957 317.057 209.996 311.102 215.208 305.238C220.421 299.375 232.159 290.268 238.431 295.002C242.929 298.392 239.707 307.372 237.516 312.196C236.253 313.667 234.879 315.168 233.385 316.676C221.967 328.211 211.319 336.333 204.793 332.792C202.526 331.51 202.694 328.405 202.694 328.405C202.694 328.405 201.414 329.01 197.143 328.254C192.872 327.497 172.483 321.381 159.148 320.902C145.812 320.423 127.63 320.508 108.422 326.879C108.575 329.159 107.538 334.577 98.7744 330.861C91.2 327.647 81.6952 321.66 72.8438 311.726C67.9232 302.31 66.3437 296.483 71.2319 293.246Z" fill="#ECA539"/>
<path d="M92.1513 233.558C92.1513 233.558 80.2046 231.474 66.6805 217.546C72.8398 225.5 80.6762 236.037 90.3228 241.547C91.1627 238.197 92.1513 233.558 92.1513 233.558Z" fill="#ECA539"/>
<path d="M210.062 194.813C210.062 194.813 209.61 208.809 211.564 220.185C213.518 231.56 216.532 242.906 224.186 255.033C231.84 267.155 236.31 272.837 236.547 280.423C240.053 277.534 244.326 275.227 245.893 276.654C247.461 278.082 246.776 279.895 246.776 279.895C246.776 279.895 248.545 278.607 249.438 279.627C250.332 280.647 250.701 282.746 249.983 285.038C251.228 284.837 251.789 286.518 250.519 290.374C249.249 294.23 244.81 305.139 233.391 316.668C221.972 328.197 211.324 336.326 204.799 332.784C202.531 331.503 202.7 328.398 202.7 328.398C202.7 328.398 201.419 329.002 197.148 328.246C192.877 327.49 172.489 321.373 159.153 320.895C145.818 320.416 127.635 320.501 108.427 326.872C108.581 329.152 107.544 334.57 98.7799 330.854C90.0161 327.138 78.6778 319.718 68.7573 306.766C58.8367 293.813 56.7157 285.308 58.1289 284.449C58.8308 283.941 60.0321 284.499 60.0321 284.499C60.0321 284.499 57.7669 278.899 59.2978 277.952C60.8287 277.006 62.9084 279.251 62.9084 279.251C62.9084 279.251 62.6 277.379 63.7385 276.872C64.8769 276.364 66.652 276.775 69.801 278.957C69.7098 275.282 69.7888 270.594 74.7558 264.115C79.7228 257.636 83.5903 255.763 87.726 254.922C89.4358 248.834 90.4286 245.557 90.9545 241.916C90.9545 241.916 81.6836 237.059 70.1409 222.132C58.5981 207.206 51.4307 194.135 48.607 186.569C45.7896 179.002 44.07 174.236 43.2481 173.424C42.4255 172.606 41.3845 171.126 41.528 170.477C41.6716 169.829 43.5638 170.273 43.7074 169.624C43.851 168.976 42.4363 166.423 42.8824 165.636C43.3284 164.849 45.6353 165.201 45.8154 164.916C45.9956 164.632 45.1731 162.178 45.6355 161.555C46.0973 160.925 48.5659 161.311 49.0384 160.788C49.511 160.264 48.1921 157.594 48.9119 156.888C49.6318 156.181 55.0549 157.697 55.5602 157.437C56.0593 157.177 56.33 154.081 57.158 153.947C57.9861 153.813 74.6122 161.278 83.6293 166.002C92.6463 170.726 210.062 194.813 210.062 194.813Z" stroke="#333333" stroke-width="2" stroke-miterlimit="10" stroke-linecap="round" stroke-linejoin="round"/>
<path d="M212.497 193.852C222.621 182.847 221.034 176.507 219.068 166.4C217.103 156.294 219.21 147.363 219.438 138.621C219.666 129.879 218.89 121.663 216.677 116.388C262.965 132.024 296.801 116.148 308.761 109.238C249.302 71.6743 197.783 96.2532 197.783 96.2532C197.783 96.2532 176.109 77.3493 137.665 83.5937C154.021 70.0593 173.467 53.7283 183.044 16.8368C161.708 20.6758 112.906 45.0258 101.63 100.693C99.0627 104.546 95.0589 106.636 93.2742 120.347C91.4896 134.058 88.5394 147.189 84.8965 155.006C81.2535 162.823 78.2841 174.695 98.2017 196.578C112.122 211.24 117.761 214.902 117.761 214.902" fill="#F8CC46"/>
<path d="M156.674 146.835C156.667 147.704 155.928 148.85 154.058 148.759C152.189 148.668 151.475 147.041 151.911 146.28C152.347 145.52 156.689 145.407 156.674 146.835Z" fill="#333333"/>
<path d="M188.53 138.007C182.55 140.765 181.849 150.968 185.767 155.33C189.686 159.691 197.493 160.25 201.531 156.357C205.568 152.463 206.11 143.69 201.095 139.438C196.08 135.187 190.949 136.889 188.53 138.007Z" fill="#333333"/>
<path d="M188.954 138.637C187.811 139.221 185.597 142.62 187.348 145.063C189.1 147.506 192.372 147.449 194.036 146.255C195.7 145.06 196.307 142.101 194.792 139.996C193.277 137.891 190.495 137.848 188.954 138.637Z" fill="white"/>
<path d="M121.156 129.698C118.226 127.298 110.976 126.492 106.327 131.665C101.678 136.837 102.81 144.384 107.467 147.72C112.124 151.056 120.922 148.319 122.956 143.943C124.996 139.559 124.776 132.663 121.156 129.698Z" fill="#333333"/>
<path d="M120.688 131.076C119.173 129.986 116.195 130.063 114.931 131.655C113.667 133.247 113.751 136.847 115.586 138.171C117.422 139.496 120.686 138.927 121.826 137.303C122.966 135.679 122.863 132.639 120.688 131.076Z" fill="white"/>
<path d="M183.044 16.8357C179.866 29.0828 175.592 39.056 170.713 47.4222C168.617 45.3312 163.411 44.834 148.856 47.0144C136.021 48.9331 122.853 58.5579 116.957 63.3487C136.49 33.7245 167.27 19.6714 183.044 16.8357Z" fill="#333333"/>
<path d="M308.761 109.244C298.93 114.925 274.314 126.658 240.156 121.971C245.939 120.654 257.064 117.455 265.696 110.988C275.88 103.35 278.505 97.7467 277.319 94.3847C287.364 97.623 297.93 102.4 308.761 109.244Z" fill="#333333"/>
<path d="M109.95 94.1438C109.95 94.1438 109.789 94.1853 109.516 94.3015C109.235 94.3995 108.855 94.5836 108.403 94.8066C107.959 95.0479 107.435 95.3161 106.914 95.6729C106.385 96.0114 105.842 96.4021 105.308 96.8173C105.044 97.0214 104.774 97.2261 104.515 97.4234C104.258 97.6331 104.014 97.8479 103.782 98.0552C103.311 98.4703 102.869 98.8571 102.52 99.222C101.813 99.9398 101.357 100.43 101.357 100.43C101.214 100.583 101.225 100.823 101.373 100.967C101.512 101.099 101.734 101.102 101.874 100.98L101.891 100.966C101.891 100.966 102.392 100.535 103.116 99.8722C103.302 99.7076 103.485 99.5117 103.701 99.3314C103.917 99.1512 104.144 98.9571 104.377 98.7562C104.611 98.5615 104.855 98.3467 105.093 98.1325C105.344 97.9297 105.595 97.7205 105.853 97.517C106.355 97.0925 106.886 96.7093 107.373 96.3306C107.853 95.9463 108.326 95.6196 108.706 95.3025C109.107 95.0148 109.436 94.7598 109.665 94.5846C109.9 94.4087 110.029 94.307 110.029 94.307C110.071 94.2775 110.077 94.2134 110.047 94.172C110.032 94.1482 109.993 94.1331 109.95 94.1438Z" fill="#333333" stroke="#333333"/>
<path d="M170.932 169.814C170.932 169.814 168.583 179.485 163.065 189.869C157.548 200.252 152.334 205.85 148.356 205.616C144.378 205.382 138.02 195.635 136.189 181.393C134.364 167.151 134.586 165.461 134.586 165.461C134.586 165.461 140.162 165.851 144.759 163.562C149.357 161.274 152.754 158.117 159.137 162.573C165.508 167.03 167.291 169.787 170.932 169.814Z" fill="#6C4C59" stroke="#333333" stroke-width="1.2" stroke-miterlimit="10" stroke-linecap="round" stroke-linejoin="round"/>
<path d="M136.128 180.917C138.385 177.811 143.243 173.023 151.523 173.434C160.883 173.894 164.507 181.176 165.684 184.507C164.903 186.241 164.033 188.041 163.066 189.869C157.542 200.253 152.335 205.85 148.356 205.616C144.378 205.382 138.02 195.635 136.189 181.393C136.166 181.23 136.151 181.08 136.128 180.917Z" fill="#F26981" stroke="#333333" stroke-width="1.2" stroke-miterlimit="10" stroke-linecap="round" stroke-linejoin="round"/>
<path d="M176.046 168.14C176.046 168.14 175.969 168.185 175.837 168.256C175.711 168.332 175.517 168.415 175.287 168.52C175.058 168.632 174.783 168.73 174.491 168.841C174.19 168.929 173.887 169.067 173.557 169.119C173.396 169.154 173.235 169.19 173.075 169.231C172.921 169.278 172.757 169.282 172.607 169.303C172.458 169.325 172.307 169.334 172.17 169.36C172.034 169.393 171.902 169.394 171.775 169.394C171.288 169.398 170.957 169.438 170.957 169.438L170.894 169.444C170.688 169.465 170.542 169.651 170.563 169.858C170.581 170.04 170.728 170.177 170.9 170.192C170.9 170.192 171.264 170.225 171.814 170.227C172.089 170.25 172.405 170.18 172.747 170.12C172.914 170.084 173.09 170.073 173.261 170.011C173.433 169.962 173.605 169.907 173.776 169.845C174.126 169.747 174.436 169.551 174.745 169.418C174.895 169.34 175.031 169.244 175.162 169.161C175.293 169.078 175.418 169.002 175.524 168.921C175.742 168.76 175.911 168.616 176.026 168.503C176.142 168.396 176.199 168.334 176.199 168.334L176.204 168.327C176.249 168.271 176.242 168.196 176.187 168.151C176.152 168.116 176.088 168.116 176.046 168.14Z" fill="#333333"/>
<path d="M129.276 162.8C129.276 162.8 129.315 162.878 129.425 163.026C129.528 163.174 129.68 163.362 129.873 163.583C129.967 163.694 130.091 163.796 130.21 163.917C130.335 164.025 130.457 164.165 130.607 164.27C130.906 164.481 131.21 164.736 131.563 164.91C131.9 165.117 132.259 165.284 132.606 165.401C132.777 165.466 132.942 165.532 133.105 165.585C133.263 165.646 133.423 165.661 133.566 165.698C134.147 165.81 134.531 165.854 134.531 165.854C134.736 165.878 134.923 165.726 134.946 165.521C134.966 165.341 134.855 165.181 134.697 165.121L134.645 165.101C134.645 165.101 134.304 164.983 133.784 164.845C133.653 164.807 133.513 164.79 133.373 164.721C133.234 164.659 133.083 164.611 132.925 164.551C132.767 164.491 132.605 164.444 132.445 164.371C132.292 164.291 132.132 164.212 131.967 164.14C131.631 164.009 131.338 163.804 131.049 163.636C130.896 163.557 130.771 163.455 130.643 163.373C130.52 163.284 130.386 163.208 130.289 163.123C130.076 162.954 129.891 162.821 129.78 162.718C129.663 162.622 129.592 162.553 129.592 162.553C129.515 162.472 129.388 162.472 129.307 162.55C129.244 162.613 129.234 162.703 129.267 162.782L129.276 162.8Z" fill="#333333"/>
<path d="M208.172 165.015C212.721 164.19 217.513 167.925 219.758 169.988C221.249 178.145 221.372 184.207 212.497 193.857C210.98 195.506 209.553 196.981 208.182 198.324C194.387 197.244 193.505 185.019 195.038 177.541C196.628 169.765 201.958 166.141 208.172 165.015Z" fill="#F22539" stroke="#333333" stroke-width="1.2" stroke-miterlimit="10" stroke-linecap="round" stroke-linejoin="round"/>
<path d="M83.3126 159.016C86.1613 156.072 92.0473 152.817 98.6145 156.963C107.06 162.296 108.229 175.495 104.097 182.41C101 187.598 94.3184 188.105 91.1729 188.034C81.3271 174.504 81.2837 165.516 83.3126 159.016Z" fill="#F22539" stroke="#333333" stroke-width="1.2" stroke-miterlimit="10" stroke-linecap="round" stroke-linejoin="round"/>
<path d="M158.156 222.145C158.124 223.842 151.381 228.325 144.299 228.187C137.218 228.056 131.915 223.517 131.974 222.027C132.033 220.537 138.896 221.648 144.209 222.064C149.522 222.488 158.192 220.24 158.156 222.145Z" fill="#ECA539"/>
<path d="M91.3144 241.969C91.3144 241.969 91.6219 240.245 92.0834 237.662C92.2754 236.362 92.4565 234.828 92.6719 233.196C92.868 231.559 93.0213 229.813 93.1816 228.072C93.303 226.322 93.4501 224.576 93.5446 222.937C93.6392 221.298 93.7063 219.763 93.7196 218.449C93.733 217.135 93.7365 216.038 93.7103 215.273C93.6965 214.507 93.6648 214.066 93.6648 214.066C93.6635 213.991 93.5946 213.934 93.5256 213.941C93.4567 213.948 93.4048 213.998 93.3986 214.062C93.3986 214.062 93.3538 214.497 93.2661 215.261C93.1784 216.024 93.0978 217.11 92.9698 218.417C92.8668 219.721 92.7352 221.243 92.6275 222.877C92.5198 224.511 92.3595 226.252 92.2243 227.99C92.1348 228.862 92.0509 229.726 91.9657 230.578C91.8806 231.43 91.8205 232.28 91.7247 233.088C91.5336 234.712 91.3563 236.22 91.2019 237.516C90.8306 240.115 90.5808 241.846 90.5808 241.846C90.5509 242.052 90.6907 242.247 90.8962 242.277C91.0892 242.308 91.2839 242.168 91.3144 241.969Z" fill="#333333" stroke="#333333"/>
<path d="M103.684 255.867C103.684 255.867 103.462 255.737 103.051 255.55C102.64 255.369 102.057 255.105 101.324 254.861C100.596 254.611 99.729 254.356 98.7848 254.153C98.3136 254.061 97.8217 253.952 97.3218 253.888C96.8199 253.805 96.3074 253.742 95.7969 253.699C95.285 253.642 94.7663 253.644 94.2583 253.625C93.7489 253.594 93.2472 253.638 92.7667 253.642C92.2793 253.64 91.8189 253.718 91.3736 253.757C90.9282 253.795 90.5179 253.868 90.1327 253.939C89.7538 254.008 89.3986 254.063 89.0968 254.144C88.7886 254.226 88.5237 254.297 88.3082 254.357C87.8711 254.477 87.6249 254.546 87.6249 254.546C87.422 254.604 87.31 254.812 87.3615 255.01C87.4124 255.201 87.608 255.321 87.7996 255.277L87.8309 255.273C87.8309 255.273 88.0727 255.224 88.4999 255.13C88.7103 255.084 88.9703 255.026 89.2671 254.958C89.5647 254.896 89.9085 254.855 90.2756 254.793C90.6426 254.731 91.041 254.665 91.4745 254.634C91.9011 254.598 92.3502 254.534 92.8175 254.525C93.2842 254.509 93.7665 254.461 94.2614 254.475C94.7557 254.482 95.255 254.476 95.7524 254.515C96.2542 254.534 96.751 254.567 97.2378 254.625C97.729 254.665 98.2051 254.744 98.6738 254.811C99.6004 254.965 100.471 255.125 101.199 255.318C102.671 255.677 103.612 256.039 103.612 256.039C103.665 256.059 103.719 256.034 103.739 255.982C103.742 255.943 103.724 255.888 103.684 255.867Z" fill="#333333" stroke="#333333"/>
<path d="M151.523 173.434C160.883 173.894 164.507 181.177 165.684 184.508C165.523 184.867 165.352 185.233 165.18 185.605C163.521 183.388 158.965 178.418 151.469 178.437C143.226 178.454 139.024 179.574 136.411 182.976C136.327 182.458 136.255 181.932 136.183 181.401C136.16 181.238 136.145 181.081 136.122 180.925C138.385 177.819 143.243 173.024 151.523 173.434Z" fill="#B94966"/>
<path d="M136.128 180.917C138.385 177.811 143.243 173.023 151.523 173.434C160.883 173.894 164.507 181.176 165.684 184.507C164.903 186.241 164.033 188.041 163.066 189.869C157.542 200.253 152.335 205.85 148.356 205.616C144.378 205.382 138.02 195.635 136.189 181.393C136.166 181.23 136.151 181.08 136.128 180.917Z" stroke="#333333" stroke-width="1.2" stroke-miterlimit="10" stroke-linecap="round" stroke-linejoin="round"/>
<path d="M240.156 121.973C240.156 121.973 219.053 115.357 213.423 110.774C215.472 113.973 216.522 116.043 216.522 116.043C216.522 116.043 231.765 121.402 240.156 121.973Z" fill="#ECA539"/>
<path d="M217.021 116.227C217.021 116.227 216.746 115.57 216.307 114.599C216.207 114.356 216.048 114.099 215.894 113.829C215.741 113.559 215.579 113.271 215.409 112.971C215.071 112.371 214.64 111.806 214.244 111.199C214.049 110.895 213.824 110.613 213.607 110.337C213.389 110.061 213.172 109.785 212.962 109.527C212.525 109.013 212.116 108.54 211.736 108.16C211.368 107.766 211.04 107.463 210.81 107.251C210.579 107.034 210.436 106.927 210.436 106.927C210.388 106.894 210.325 106.901 210.285 106.943C210.257 106.977 210.256 107.034 210.285 107.069C210.285 107.069 210.704 107.642 211.328 108.505C211.649 108.93 211.98 109.454 212.381 109.978C212.567 110.251 212.76 110.536 212.953 110.821C213.141 111.113 213.365 111.389 213.546 111.687C213.917 112.284 214.329 112.864 214.633 113.436C214.801 113.717 214.961 113.986 215.113 114.244C215.266 114.501 215.416 114.733 215.529 114.982C216.011 115.935 216.352 116.56 216.352 116.56C216.453 116.747 216.681 116.813 216.867 116.712C217.022 116.614 217.09 116.404 217.021 116.227Z" fill="#333333" stroke="#333333"/>
<path d="M160.979 61.3638C160.979 61.3638 142.047 78.1566 127.381 86.3343C134.586 84.1828 137.66 83.601 137.66 83.601C137.66 83.601 157.024 67.589 160.979 61.3638Z" fill="#ECA539"/>
<path d="M183.077 215.338C185.244 214.233 187.41 213.127 189.553 211.967C191.703 210.825 193.821 209.61 195.908 208.347C197.995 207.079 200.012 205.683 201.944 204.189C203.868 202.683 205.704 201.059 207.463 199.367C209.209 197.657 210.906 195.907 212.554 194.112C214.202 192.316 215.777 190.427 217.12 188.37C218.457 186.314 219.561 184.079 220.168 181.685C220.801 179.294 220.865 176.783 220.632 174.346C220.405 171.896 219.917 169.497 219.455 167.109C218.981 164.721 218.67 162.324 218.566 159.899C218.331 155.047 218.83 150.196 219.278 145.345C219.503 142.919 219.687 140.478 219.739 138.032C219.791 135.592 219.778 133.139 219.659 130.697C219.534 128.255 219.307 125.812 218.918 123.39C218.51 120.971 217.951 118.561 217.011 116.258L216.543 116.762L219.386 117.668L220.805 118.121L222.238 118.529L225.11 119.343L228.004 120.061C228.966 120.313 229.942 120.519 230.912 120.726C231.888 120.926 232.854 121.158 233.833 121.332L236.771 121.855C237.751 122.035 238.737 122.152 239.72 122.3L241.197 122.513L242.681 122.681C243.673 122.784 244.661 122.919 245.649 122.991L248.627 123.224L251.609 123.368C252.602 123.427 253.6 123.415 254.596 123.435L256.091 123.456L257.581 123.427C259.573 123.41 261.562 123.305 263.543 123.182L266.517 122.94L269.484 122.616L272.442 122.205L275.385 121.712L278.314 121.145L281.229 120.497L284.124 119.768C285.083 119.494 286.045 119.239 286.997 118.953C294.648 116.642 302.044 113.552 308.945 109.567C309.125 109.467 309.19 109.232 309.083 109.052C309.052 108.998 309.003 108.953 308.956 108.919C306.897 107.636 304.822 106.38 302.708 105.185C301.649 104.594 300.595 103.99 299.52 103.432C298.45 102.855 297.375 102.297 296.29 101.76C294.129 100.664 291.92 99.65 289.707 98.6615C287.479 97.7062 285.24 96.771 282.96 95.935C273.874 92.5307 264.403 90.1542 254.777 88.941C245.157 87.7146 235.387 87.6509 225.748 88.7599C220.932 89.3141 216.146 90.1696 211.434 91.322C209.082 91.9073 206.744 92.561 204.434 93.3133C202.125 94.0718 199.846 94.8844 197.608 95.9022L198.018 95.956C196.975 95.0907 195.899 94.3302 194.794 93.5917C193.689 92.8595 192.55 92.175 191.403 91.5231C190.255 90.865 189.08 90.2603 187.889 89.6762C186.704 89.0916 185.492 88.554 184.276 88.0359C183.054 87.5247 181.822 87.0461 180.582 86.6002C179.335 86.1612 178.084 85.7354 176.813 85.3624C176.185 85.1592 175.547 84.9887 174.904 84.8188C174.267 84.6482 173.628 84.4652 172.987 84.3204L171.056 83.8678L169.111 83.4674C168.465 83.3295 167.81 83.2368 167.159 83.1184C166.509 83.0063 165.858 82.8941 165.205 82.814L163.242 82.5485L161.273 82.3471C159.962 82.2063 158.639 82.1428 157.321 82.0535C156.001 82.0213 154.682 81.932 153.363 81.9569L151.382 81.9595L149.402 82.0255C148.083 82.0568 146.766 82.1702 145.446 82.2586C144.125 82.3407 142.822 82.5289 141.506 82.6549C140.193 82.8186 138.892 83.0256 137.588 83.2075L137.889 83.8747C143.176 79.5066 148.444 75.077 153.328 70.2232C154.554 69.0155 155.745 67.7734 156.922 66.5199C158.086 65.2552 159.235 63.9728 160.35 62.6623C162.579 60.0349 164.683 57.3058 166.645 54.477C168.606 51.6481 170.432 48.7189 172.103 45.71L173.336 43.4364L174.509 41.1371C175.258 39.5843 176 38.0322 176.689 36.4537C177.047 35.6695 177.365 34.8702 177.697 34.076C178.034 33.2811 178.353 32.4818 178.658 31.6775C179.294 30.079 179.858 28.4497 180.435 26.8254C180.966 25.1867 181.524 23.5581 181.996 21.9C182.508 20.2569 182.934 18.5843 183.394 16.9275C183.45 16.7253 183.334 16.5213 183.132 16.4655C183.074 16.4524 183.017 16.4455 182.967 16.4568L182.961 16.4574C177.867 17.4009 172.951 19.0368 168.172 20.9695C163.401 22.9205 158.781 25.2305 154.328 27.8279C145.422 33.0165 137.184 39.3682 129.944 46.7164C126.327 50.3902 122.95 54.3062 119.888 58.4632C116.825 62.6138 114.044 66.9835 111.63 71.5446C106.763 80.6516 103.292 90.4932 101.248 100.616L101.304 100.484C100.561 101.586 99.6572 102.602 98.8111 103.689C97.9581 104.771 97.1759 105.927 96.5273 107.153C95.2043 109.601 94.4039 112.275 93.7877 114.955C93.1784 117.642 92.846 120.377 92.4647 123.065C92.0778 125.761 91.6333 128.45 91.1499 131.13C90.1769 136.491 88.9914 141.816 87.4138 147.016C86.6183 149.614 85.712 152.178 84.5989 154.636C83.4375 157.118 82.4824 159.763 82.0823 162.517C81.6692 165.266 81.8073 168.087 82.352 170.797C82.9035 173.512 83.8496 176.125 85.018 178.62C86.1802 181.116 87.589 183.485 89.1093 185.767C90.6359 188.048 92.2864 190.241 94.0296 192.349C94.9012 193.402 95.7853 194.455 96.6976 195.473C97.1603 195.984 97.5911 196.493 98.0795 197.008L99.5052 198.475L102.351 201.416C103.303 202.392 104.285 203.346 105.261 204.307C106.231 205.268 107.212 206.216 108.223 207.141C109.227 208.068 110.203 209.022 111.247 209.906C113.289 211.717 115.396 213.471 117.67 215.012C117.731 215.05 117.812 215.035 117.85 214.975C117.888 214.914 117.874 214.839 117.819 214.794L117.812 214.788C117.272 214.392 116.736 213.964 116.217 213.528C115.693 213.093 115.174 212.656 114.672 212.193C113.64 211.308 112.643 210.387 111.644 209.454C110.641 208.541 109.666 207.586 108.679 206.645C107.687 205.712 106.724 204.756 105.766 203.787C104.808 202.824 103.827 201.877 102.875 200.901L100.029 197.959L98.6091 196.485C98.1558 196.005 97.7043 195.479 97.2554 194.979C96.35 193.967 95.4734 192.926 94.6143 191.871C92.885 189.775 91.2551 187.599 89.7499 185.341C88.2509 183.082 86.8639 180.742 85.725 178.289C84.5804 175.842 83.6588 173.284 83.1274 170.643C82.6029 168.007 82.4685 165.288 82.8724 162.634C83.2631 159.976 84.1776 157.43 85.3352 154.974C86.4752 152.469 87.3909 149.872 88.2033 147.254C89.8016 142.008 91.0039 136.662 91.9876 131.281C92.4822 128.587 92.9136 125.893 93.2986 123.178C93.6718 120.471 93.9948 117.769 94.5834 115.129C95.179 112.495 95.9537 109.88 97.2223 107.521C97.8434 106.336 98.5918 105.221 99.4216 104.161C100.245 103.095 101.153 102.065 101.935 100.902C101.962 100.861 101.977 100.822 101.992 100.776L101.991 100.77C104.024 90.7177 107.47 80.9482 112.299 71.9022C114.697 67.3744 117.463 63.038 120.503 58.9149C123.542 54.7856 126.898 50.9035 130.491 47.251C137.685 39.9518 145.871 33.6435 154.717 28.4863C159.14 25.9109 163.731 23.6166 168.471 21.6751C173.206 19.753 178.093 18.1328 183.105 17.2038L182.672 16.7338C182.218 18.3837 181.79 20.0437 181.284 21.6799C180.811 23.3254 180.259 24.9472 179.733 26.579C179.161 28.19 178.603 29.8124 177.965 31.3984C177.667 32.2021 177.348 32.9951 177.009 33.7837C176.677 34.5716 176.365 35.3703 176.007 36.1482C175.324 37.7198 174.587 39.265 173.843 40.8046L172.675 43.0907L171.452 45.3442C169.792 48.3331 167.983 51.2416 166.032 54.0503C164.081 56.859 161.994 59.5737 159.782 62.1803C158.673 63.484 157.536 64.7588 156.378 66.0166C155.207 67.2632 154.021 68.4985 152.807 69.6986C147.952 74.5241 142.707 78.9386 137.414 83.3011C137.25 83.4317 137.23 83.6747 137.366 83.8322C137.452 83.9376 137.583 83.9815 137.709 83.9689L137.715 83.9683C139.013 83.787 140.308 83.5806 141.608 83.4182C142.911 83.2935 144.209 83.1059 145.517 83.0251C146.823 82.9317 148.128 82.8195 149.435 82.7895L151.395 82.7191L153.357 82.7184C154.664 82.6947 155.977 82.7847 157.283 82.8118C158.589 82.9024 159.898 82.9609 161.197 83.103L163.154 83.3056L165.098 83.573C165.745 83.6538 166.395 83.7596 167.039 83.8787C167.684 83.9977 168.332 84.0847 168.972 84.2233L170.898 84.6193L172.809 85.0675C173.45 85.2123 174.076 85.3903 174.707 85.5615C175.338 85.7327 175.968 85.9038 176.596 86.1007C177.854 86.4688 179.092 86.8896 180.325 87.3235C181.559 87.7638 182.778 88.2436 183.986 88.7435C185.189 89.2566 186.382 89.7898 187.56 90.3688C188.732 90.9484 189.899 91.5475 191.034 92.1944C192.168 92.8412 193.293 93.5144 194.378 94.2359C195.463 94.9575 196.539 95.718 197.52 96.5388C197.638 96.641 197.797 96.6567 197.93 96.5926C200.097 95.6138 202.38 94.788 204.666 94.0446C206.957 93.3004 209.277 92.6486 211.617 92.0708C216.297 90.9216 221.046 90.0699 225.838 89.5245C235.414 88.4218 245.12 88.4855 254.683 89.705C264.246 90.9182 273.664 93.2746 282.698 96.6589C284.964 97.4899 287.19 98.4201 289.405 99.3703C291.611 100.353 293.8 101.357 295.954 102.447C297.032 102.979 298.107 103.536 299.164 104.108C300.233 104.667 301.28 105.265 302.339 105.85C304.438 107.034 306.506 108.284 308.552 109.562L308.563 108.914C301.715 112.862 294.368 115.935 286.8 118.193C285.854 118.478 284.899 118.733 283.945 119L281.07 119.726L278.174 120.373L275.263 120.938L272.338 121.423L269.399 121.832L266.451 122.154L263.495 122.395C261.52 122.517 259.551 122.626 257.572 122.641L256.088 122.67L254.605 122.648C253.616 122.627 252.63 122.638 251.643 122.578L248.681 122.439L245.722 122.21C244.734 122.138 243.758 122.002 242.774 121.904L241.303 121.741L239.832 121.528C238.855 121.379 237.869 121.262 236.902 121.087L233.984 120.569C233.011 120.394 232.046 120.168 231.076 119.967C230.107 119.767 229.143 119.559 228.182 119.307L225.301 118.595L222.448 117.785L221.021 117.377L219.609 116.923L216.785 116.021C216.582 115.959 216.372 116.069 216.309 116.265C216.28 116.351 216.289 116.439 216.316 116.518L216.316 116.525C217.241 118.734 217.808 121.099 218.231 123.479C218.629 125.867 218.878 128.283 219.021 130.704C219.157 133.132 219.192 135.557 219.146 137.99C219.105 140.416 218.925 142.838 218.708 145.269C218.271 150.113 217.782 155.001 218.034 159.902C218.148 162.351 218.476 164.797 218.957 167.184C219.425 169.572 219.912 171.964 220.147 174.369C220.377 176.775 220.319 179.215 219.711 181.547C219.124 183.882 218.054 186.076 216.739 188.104C215.418 190.133 213.879 192.006 212.231 193.795C210.561 195.561 208.884 197.321 207.093 198.96C205.303 200.598 203.455 202.167 201.513 203.618C199.585 205.08 197.575 206.43 195.515 207.708C193.462 208.999 191.348 210.195 189.251 211.42C187.139 212.628 185.027 213.842 182.93 215.068C182.858 215.107 182.835 215.198 182.88 215.263C182.926 215.347 183.011 215.371 183.077 215.338Z" fill="#333333" stroke="#333333"/>
<path d="M120.949 89.2575C120.949 89.2575 121.977 88.8497 123.516 88.2321C123.898 88.0731 124.327 87.9348 124.765 87.7576C125.21 87.5861 125.673 87.4127 126.154 87.2248C126.643 87.0551 127.145 86.8842 127.658 86.6994C128.164 86.509 128.683 86.3237 129.211 86.169C129.739 86.0019 130.261 85.8416 130.776 85.6819C131.29 85.5097 131.809 85.3878 132.302 85.2495C132.801 85.1168 133.281 84.9861 133.737 84.8641C134.193 84.7359 134.625 84.629 135.029 84.5567C136.64 84.2171 137.716 83.9757 137.716 83.9757L137.747 83.9662C137.951 83.9203 138.076 83.7175 138.03 83.5129C137.985 83.3145 137.796 83.1941 137.602 83.2199C137.602 83.2199 136.5 83.3942 134.846 83.6873C134.429 83.7546 133.99 83.8558 133.529 83.9847C133.066 84.101 132.572 84.2267 132.067 84.36C131.561 84.487 131.029 84.6165 130.517 84.8075C129.997 84.9804 129.464 85.1545 128.938 85.3342C128.404 85.502 127.886 85.6999 127.368 85.8979C126.856 86.0889 126.352 86.2981 125.872 86.4923C125.393 86.7053 124.933 86.9101 124.497 87.1061C124.06 87.2958 123.651 87.5019 123.285 87.6973C122.912 87.8933 122.575 88.0667 122.275 88.23C121.982 88.399 121.725 88.5516 121.516 88.6741C121.092 88.9197 120.867 89.0755 120.868 89.0818C120.82 89.1119 120.808 89.1766 120.838 89.2243C120.853 89.2544 120.905 89.2682 120.949 89.2575Z" fill="#333333" stroke="#333333"/>
<path d="M192.968 275.8C192.968 275.8 211.213 271.239 207.1 258.653C202.938 266.091 200.285 269.852 192.968 275.8Z" fill="#ECA539"/>
<path d="M169.63 229.152C169.63 229.152 169.532 229.25 169.337 229.448C169.141 229.638 168.86 229.933 168.501 230.324C167.769 231.095 166.734 232.252 165.477 233.786C164.206 235.303 162.754 237.224 161.179 239.494C159.61 241.764 157.926 244.393 156.276 247.368C154.627 250.343 152.979 253.654 151.621 257.323C151.31 258.254 150.999 259.192 150.677 260.144C150.375 261.1 150.105 262.066 149.818 263.052C149.263 265.017 148.719 267.031 148.218 269.098C147.716 271.158 147.246 273.273 146.861 275.429C146.497 277.597 146.148 279.788 146.21 282.102C146.25 282.688 146.277 283.269 146.552 283.926C146.88 284.8 147.985 284.898 148.602 284.683C148.927 284.581 149.215 284.419 149.433 284.321C149.534 284.26 149.661 284.26 149.533 284.254C149.52 284.242 149.443 284.237 149.414 284.202C149.38 284.18 149.36 284.17 149.351 284.139C149.286 284 149.343 284.127 149.335 284.109L149.353 284.158C149.369 284.194 149.379 284.225 149.373 284.232L149.416 284.538L149.464 284.946L149.548 285.787C149.612 286.357 149.689 286.933 149.843 287.526C149.918 287.823 150.024 288.123 150.168 288.426C150.343 288.719 150.523 289.056 150.93 289.269L150.998 289.312C151.018 289.323 151.11 289.365 151.09 289.354L151.189 289.388C151.254 289.413 151.314 289.439 151.424 289.46C151.638 289.514 151.81 289.522 151.987 289.524C152.335 289.52 152.657 289.45 152.958 289.369C153.543 289.202 154.081 288.952 154.476 288.918C154.664 288.906 154.731 288.937 154.83 289.041C154.915 289.128 155.033 289.363 155.12 289.595C155.301 290.078 155.408 290.632 155.677 291.232C155.749 291.384 155.828 291.541 155.958 291.705C156.03 291.787 156.088 291.863 156.197 291.941L156.272 291.997C156.333 292.029 156.247 291.999 156.42 292.077L156.518 292.112C156.538 292.116 156.544 292.122 156.571 292.132L156.693 292.151C156.776 292.162 156.859 292.166 156.941 292.164C157.053 292.147 157.165 292.123 157.263 292.094C157.446 292.031 157.603 291.952 157.74 291.868C158.277 291.542 158.717 291.136 159.096 290.946C159.174 290.9 159.257 290.904 159.18 290.899C159.173 290.893 159.136 290.897 159.121 290.88L159.065 290.822L159.101 290.863C159.177 290.931 159.145 290.928 159.145 290.928C159.207 291.042 159.266 291.309 159.311 291.571C159.358 291.845 159.4 292.145 159.516 292.476C159.624 292.795 159.874 293.207 160.299 293.399C160.437 293.455 160.364 293.424 160.41 293.439L160.462 293.452C160.507 293.461 160.508 293.473 160.585 293.484C160.714 293.503 160.88 293.518 160.966 293.497C161.179 293.475 161.357 293.413 161.514 293.347C161.829 293.207 162.079 293.042 162.311 292.899C162.543 292.749 162.769 292.612 162.946 292.543C163.031 292.509 163.1 292.502 163.113 292.507L163.119 292.507C163.1 292.502 163.171 292.52 163.079 292.485L163.172 292.527C163.245 292.557 163.195 292.562 163.22 292.566C163.492 292.818 163.76 293.336 164.049 293.821C164.2 294.066 164.352 294.323 164.62 294.594C164.759 294.72 164.94 294.879 165.266 294.916C165.317 294.917 165.449 294.91 165.529 294.889C165.597 294.87 165.633 294.854 165.682 294.836C165.774 294.801 165.846 294.763 165.918 294.73C166.47 294.427 166.892 294.099 167.347 293.774C167.788 293.445 168.224 293.122 168.659 292.793C170.395 291.496 172.13 290.25 173.974 289.329C175.871 288.371 177.738 287.498 179.479 286.378C180.355 285.84 181.241 285.338 182.078 284.785C182.893 284.209 183.703 283.645 184.501 283.083C185.291 282.515 186.099 281.99 186.844 281.408C187.582 280.814 188.301 280.228 189.015 279.655C190.424 278.499 191.86 277.422 193.085 276.265C195.626 274.038 197.822 271.781 199.66 269.732C201.475 267.647 202.988 265.77 204.073 264.101C204.354 263.693 204.613 263.305 204.861 262.938C205.088 262.56 205.299 262.203 205.5 261.872C205.895 261.21 206.225 260.645 206.455 260.165C206.929 259.217 207.181 258.71 207.181 258.71C207.203 258.669 207.185 258.62 207.145 258.599C207.105 258.578 207.062 258.595 207.034 258.629L207.029 258.636C207.029 258.636 206.735 259.116 206.187 260.021C205.929 260.478 205.56 261.016 205.123 261.643C204.908 261.957 204.682 262.296 204.434 262.664C204.172 263.013 203.893 263.384 203.598 263.781C203.302 264.173 202.996 264.59 202.659 265.017C202.315 265.432 201.954 265.874 201.576 266.331C200.854 267.266 199.967 268.199 199.071 269.227C197.183 271.218 195.071 273.428 192.51 275.645C191.272 276.803 189.877 277.837 188.461 278.988C187.752 279.554 187.032 280.133 186.301 280.721C185.561 281.296 184.758 281.808 183.98 282.368C183.187 282.917 182.389 283.479 181.579 284.043C180.754 284.582 179.885 285.069 179.027 285.593C177.339 286.676 175.435 287.558 173.555 288.502C171.608 289.465 169.838 290.74 168.083 292.033C167.216 292.665 166.321 293.389 165.465 293.875C165.417 293.899 165.362 293.923 165.326 293.94L165.284 293.957C165.301 293.942 165.366 293.955 165.347 293.963C165.394 293.984 165.335 293.964 165.279 293.906C165.153 293.786 165.01 293.566 164.88 293.344C164.594 292.891 164.397 292.372 163.857 291.849C163.767 291.776 163.618 291.677 163.565 291.656L163.473 291.615C163.347 291.564 163.381 291.586 163.329 291.572L163.233 291.557C162.969 291.52 162.76 291.579 162.589 291.64C162.248 291.77 162.006 291.94 161.761 292.085C161.311 292.397 160.82 292.611 160.696 292.509C160.603 292.462 160.524 292.368 160.447 292.167C160.376 291.965 160.337 291.708 160.29 291.428C160.236 291.142 160.213 290.846 160.015 290.454C159.945 290.328 159.844 290.204 159.81 290.183L159.775 290.142C159.677 290.05 159.679 290.075 159.625 290.036C159.545 289.994 159.451 289.946 159.374 289.935C159.297 289.923 159.215 289.919 159.132 289.921C159.057 289.922 159.008 289.94 158.946 289.952C158.816 289.978 158.744 290.023 158.653 290.058C158.034 290.387 157.648 290.768 157.211 291.015C157.11 291.076 157.013 291.117 156.928 291.151C156.891 291.161 156.859 291.164 156.835 291.173C156.847 291.165 156.86 291.17 156.873 291.175C156.88 291.181 156.887 291.187 156.888 291.193C156.881 291.194 156.855 291.184 156.842 291.179C156.792 291.184 156.684 291.055 156.586 290.837C156.391 290.406 156.277 289.84 156.067 289.265C155.949 288.973 155.85 288.679 155.55 288.341C155.466 288.254 155.348 288.152 155.308 288.131L155.219 288.07C155.099 288 155.14 288.033 155.093 288.006L155.014 287.976C154.796 287.89 154.575 287.887 154.386 287.9C153.655 287.986 153.162 288.251 152.663 288.384C152.417 288.453 152.187 288.495 151.973 288.504C151.865 288.502 151.763 288.494 151.699 288.481C151.673 288.484 151.601 288.459 151.536 288.434L151.437 288.4C151.385 288.379 151.45 288.405 151.437 288.4L151.417 288.383C151.184 288.273 150.951 287.776 150.832 287.287C150.699 286.787 150.626 286.249 150.564 285.697L150.474 284.863L150.424 284.43C150.403 284.28 150.389 284.142 150.327 283.908C150.315 283.845 150.299 283.809 150.29 283.785L150.272 283.736C150.248 283.687 150.302 283.777 150.209 283.615C150.15 283.532 150.093 283.462 150.004 283.395C149.909 283.335 149.776 283.272 149.694 283.267C149.286 283.239 149.14 283.367 148.994 283.42C148.71 283.557 148.507 283.672 148.298 283.738C148.109 283.807 147.894 283.804 147.783 283.777C147.771 283.784 147.692 283.748 147.632 283.722L147.54 283.681C147.613 283.718 147.559 283.685 147.579 283.696C147.565 283.684 147.515 283.626 147.481 283.534C147.317 283.164 147.261 282.605 147.228 282.089C147.164 279.952 147.494 277.756 147.85 275.634C148.218 273.505 148.678 271.41 149.175 269.363C149.671 267.316 150.203 265.309 150.753 263.352C151.028 262.379 151.297 261.401 151.594 260.458C151.905 259.52 152.211 258.595 152.511 257.683C153.837 254.069 155.456 250.792 157.077 247.846C158.704 244.898 160.359 242.284 161.91 240.029C163.44 237.758 164.854 235.834 166.017 234.246C167.186 232.663 168.139 231.445 168.783 230.607C169.433 229.78 169.787 229.332 169.787 229.332C169.826 229.284 169.82 229.215 169.771 229.176C169.733 229.11 169.67 229.116 169.63 229.152Z" fill="#333333" stroke="#333333"/>
</g>
</g>
</svg>
